<?xml version="1.0" encoding="UTF-8"?>
<svg id="Isotipo" xmlns="http://www.w3.org/2000/svg" xmlns:xlink="http://www.w3.org/1999/xlink" viewBox="0 0 160 160">
  <defs>
    <style>
      .cls-1 {
        fill: url(#Degradado_sin_nombre_43);
      }

      .cls-2 {
        fill: #d0d9c0;
      }

      .cls-3 {
        fill: url(#Degradado_sin_nombre_52);
      }
    </style>
    <linearGradient id="Degradado_sin_nombre_43" data-name="Degradado sin nombre 43" x1="38.69" y1="65.11" x2="79.75" y2="136.24" gradientUnits="userSpaceOnUse">
      <stop offset="0" stop-color="#628321"/>
      <stop offset=".23" stop-color="#5c7e1e" stop-opacity=".99"/>
      <stop offset=".53" stop-color="#4c7018" stop-opacity=".96"/>
      <stop offset=".88" stop-color="#31590e" stop-opacity=".92"/>
      <stop offset="1" stop-color="#27500a" stop-opacity=".9"/>
    </linearGradient>
    <linearGradient id="Degradado_sin_nombre_52" data-name="Degradado sin nombre 52" x1="121.71" y1="36.8" x2="80.65" y2="77.86" gradientUnits="userSpaceOnUse">
      <stop offset="0" stop-color="#628321"/>
      <stop offset=".23" stop-color="#5c7e1e" stop-opacity=".99"/>
      <stop offset=".53" stop-color="#4c7018" stop-opacity=".96"/>
      <stop offset=".88" stop-color="#31590e" stop-opacity=".92"/>
      <stop offset="1" stop-color="#27500a" stop-opacity=".9"/>
    </linearGradient>
  </defs>
  <rect class="cls-2" width="160" height="160"/>
  <g>
    <path class="cls-1" d="M57.36,78.96c-1.07,7.18-4.08,13.09.51,19.95,2.92,4.33,7.84,7.75,13.13,8.24,8.26,1.03,14.54-6.81,22.25-3.53,10.21,5.49,2.45,21.01-4.21,26.52-4.92,4.56-10.26,6.12-16.97,6.7-23.78,2.31-42.45-16.35-42.48-40.15-.21-11.78,3.31-32.72,17.6-35.55,10.53-.55,12.3,9.24,10.25,17.34l-.08.47Z"/>
    <path class="cls-3" d="M100.27,82.29c1.97-6.98,5.71-12.46,2.02-19.86-2.34-4.66-6.8-8.68-11.98-9.84-8.06-2.07-15.28,4.91-22.51.68-9.43-6.74.23-21.16,7.53-25.78,5.45-3.91,10.95-4.78,17.68-4.5,23.89.72,40.04,21.6,37.05,45.21-1.28,11.71-7.43,32.03-21.96,33.03-10.52-.79-11.03-10.72-7.97-18.5l.14-.46Z"/>
  </g>
</svg>