<?xml version="1.0" encoding="UTF-8"?>
<svg id="Logotipo" xmlns="http://www.w3.org/2000/svg" xmlns:xlink="http://www.w3.org/1999/xlink" viewBox="0 0 250 150">
  <defs>
    <style>
      .cls-1 {
        fill: url(#Degradado_sin_nombre_43-2);
      }

      .cls-2 {
        fill: url(#Degradado_sin_nombre_43);
      }

      .cls-3 {
        fill: #27500a;
      }
    </style>
    <linearGradient id="Degradado_sin_nombre_43" data-name="Degradado sin nombre 43" x1="58.72" y1="70.07" x2="72" y2="93.08" gradientUnits="userSpaceOnUse">
      <stop offset="0" stop-color="#628321"/>
      <stop offset=".23" stop-color="#5c7e1e" stop-opacity=".99"/>
      <stop offset=".53" stop-color="#4c7018" stop-opacity=".96"/>
      <stop offset=".88" stop-color="#31590e" stop-opacity=".92"/>
      <stop offset="1" stop-color="#27500a" stop-opacity=".9"/>
    </linearGradient>
    <linearGradient id="Degradado_sin_nombre_43-2" data-name="Degradado sin nombre 43" x1="85.58" y1="60.91" x2="72.3" y2="74.2" xlink:href="#Degradado_sin_nombre_43"/>
  </defs>
  <g>
    <path class="cls-2" d="M64.76,74.55c-.35,2.32-1.32,4.23.17,6.45.94,1.4,2.54,2.51,4.25,2.67,2.67.33,4.7-2.2,7.2-1.14,3.3,1.78.79,6.8-1.36,8.58-1.59,1.48-3.32,1.98-5.49,2.17-7.69.75-13.73-5.29-13.74-12.99-.07-3.81,1.07-10.58,5.69-11.5,3.41-.18,3.98,2.99,3.32,5.61l-.03.15Z"/>
    <path class="cls-1" d="M78.64,75.63c.64-2.26,1.85-4.03.65-6.42-.76-1.51-2.2-2.81-3.88-3.18-2.61-.67-4.94,1.59-7.28.22-3.05-2.18.07-6.84,2.44-8.34,1.76-1.26,3.54-1.54,5.72-1.46,7.73.23,12.95,6.99,11.98,14.63-.42,3.79-2.4,10.36-7.1,10.69-3.4-.25-3.57-3.47-2.58-5.98l.05-.15Z"/>
  </g>
  <g>
    <path class="cls-3" d="M104.94,91.07v-30.49c-.06-2.88,3.76-2.23,5.6-2.27,1.26,0,2.27,1.02,2.27,2.27v30.49c.06,2.88-3.76,2.23-5.6,2.27-1.26,0-2.27-1.02-2.27-2.27ZM125.07,93.06c-1.07-.29-1.95-1.07-2.44-2.07l-5.43-11.29c-.54-1.12-1.51-1.99-2.69-2.39-1.48-.51-2.93-1.09-2.15-3.48,5.3-3.68,6.18-8.31,7.67-13.24.41-1.36,1.67-2.27,3.08-2.27,2.75,0,6.95,0,6.95,0,1.9,0,2.96,2.19,1.79,3.68l-9.32,11.83c-1.3,1.06-1.26-1.8.01-.7,0,0,12.29,16.63,12.29,16.63,1.11,1.5.06,3.27-1.65,3.6-1.33.25-5.48.43-8.11-.29Z"/>
    <path class="cls-3" d="M138.3,69.9h0c0-1.58,1.28-2.86,2.86-2.86h5.52c1.58,0,2.86,1.28,2.86,2.86h0c0,1.58-1.28,2.86-2.86,2.86h-5.52c-1.58,0-2.86-1.28-2.86-2.86ZM144.83,64.45c-1.44,0-2.5-.38-3.19-1.13-.69-.75-1.03-1.7-1.03-2.86s.34-2.15,1.03-2.9c.69-.75,1.75-1.13,3.19-1.13s2.5.38,3.19,1.13c.69.75,1.03,1.72,1.03,2.9s-.34,2.1-1.03,2.86c-.69.75-1.75,1.13-3.19,1.13ZM141.81,90.49v-20.59c0-1.58,1.28-2.86,2.86-2.86h2.02c1.58,0,2.86,1.28,2.86,2.86v20.59c0,1.58-1.28,2.86-2.86,2.86h-2.02c-1.58,0-2.86-1.28-2.86-2.86Z"/>
    <path class="cls-3" d="M161.2,91.57l-6.39-21.34c-.48-1.59.72-3.2,2.38-3.2h2.7c1.11,0,2.09.74,2.39,1.81l6,21.34c.45,1.58-.75,3.16-2.39,3.16h-2.31c-1.1,0-2.06-.72-2.38-1.77ZM164.08,90.86v-1.42c0-1.37,1.11-2.48,2.48-2.48h2.81c1.37,0,2.48,1.11,2.48,2.48v1.42c0,1.37-1.11,2.48-2.48,2.48h-2.81c-1.37,0-2.48-1.11-2.48-2.48ZM167.7,90.28l5.14-21.34c.27-1.12,1.27-1.9,2.41-1.9h2.27c1.62,0,2.81,1.53,2.4,3.11l-5.53,21.34c-.28,1.1-1.27,1.86-2.4,1.86h-1.89c-1.61,0-2.79-1.5-2.41-3.07Z"/>
    <path class="cls-3" d="M182.99,69.9h0c0-1.58,1.28-2.86,2.86-2.86h5.52c1.58,0,2.86,1.28,2.86,2.86h0c0,1.58-1.28,2.86-2.86,2.86h-5.52c-1.58,0-2.86-1.28-2.86-2.86ZM189.52,64.45c-1.44,0-2.5-.38-3.19-1.13-.69-.75-1.03-1.7-1.03-2.86s.34-2.15,1.03-2.9c.69-.75,1.75-1.13,3.19-1.13s2.5.38,3.19,1.13c.69.75,1.03,1.72,1.03,2.9s-.34,2.1-1.03,2.86c-.69.75-1.75,1.13-3.19,1.13ZM186.5,90.49v-20.59c0-1.58,1.28-2.86,2.86-2.86h2.02c1.58,0,2.86,1.28,2.86,2.86v20.59c0,1.58-1.28,2.86-2.86,2.86h-2.02c-1.58,0-2.86-1.28-2.86-2.86Z"/>
  </g>
</svg>